<?xml version="1.0" encoding="utf-8"?>
<!-- Generator: Adobe Illustrator 22.1.0, SVG Export Plug-In . SVG Version: 6.00 Build 0)  -->
<svg version="1.1" id="Layer_1" xmlns="http://www.w3.org/2000/svg" xmlns:xlink="http://www.w3.org/1999/xlink" x="0px" y="0px"
	 viewBox="0 0 636 129" style="enable-background:new 0 0 636 129;" xml:space="preserve">
<style type="text/css">
	.st0{fill:#34A978;}
	.st1{fill:#FFFFFF;}
</style>
<path class="st0" d="M571.4,129.2H64.6c-35.7,0-64.7-29-64.7-64.7v0c0-35.7,29-64.7,64.7-64.7h506.7c35.7,0,64.7,29,64.7,64.7v0
	C636.1,100.2,607.1,129.2,571.4,129.2z"/>
<g>
	<path class="st1" d="M162.8,74.1L157.9,89h-6.3l16-47.2h7.4L191.1,89h-6.5l-5-14.8H162.8z M178.3,69.4l-4.6-13.6
		c-1-3.1-1.8-5.9-2.5-8.6h-0.1c-0.7,2.8-1.5,5.7-2.4,8.5l-4.6,13.7H178.3z"/>
	<path class="st1" d="M197.6,64.3c0-3.5-0.1-6.4-0.3-9.2h5.5l0.4,5.6h0.1c1.7-3.2,5.6-6.4,11.2-6.4c4.7,0,12,2.8,12,14.4V89h-6.2
		V69.4c0-5.5-2-10-7.8-10c-4.1,0-7.2,2.9-8.3,6.3c-0.3,0.8-0.4,1.8-0.4,2.9V89h-6.2V64.3z"/>
	<path class="st1" d="M235.6,82.7c1.8,1.2,5,2.5,8.1,2.5c4.5,0,6.6-2.2,6.6-5c0-2.9-1.8-4.6-6.3-6.2c-6.1-2.2-9-5.5-9-9.6
		c0-5.5,4.4-9.9,11.7-9.9c3.4,0,6.4,1,8.3,2.1l-1.5,4.5c-1.3-0.8-3.8-2-6.9-2c-3.6,0-5.7,2.1-5.7,4.6c0,2.8,2,4.1,6.4,5.7
		c5.9,2.2,8.9,5.2,8.9,10.2c0,6-4.6,10.2-12.7,10.2c-3.7,0-7.1-0.9-9.5-2.3L235.6,82.7z"/>
	<path class="st1" d="M266.7,55.1l4.5,17.2c1,3.8,1.9,7.3,2.5,10.8h0.2c0.8-3.4,1.9-7.1,3-10.7l5.5-17.3h5.2l5.3,16.9
		c1.3,4.1,2.2,7.6,3,11.1h0.2c0.6-3.4,1.5-7,2.6-11l4.8-17h6.1L298.6,89H293l-5.2-16.2c-1.2-3.8-2.2-7.1-3-11.1h-0.1
		c-0.8,4.1-1.9,7.6-3.1,11.2L276.2,89h-5.6l-10.2-33.9H266.7z"/>
	<path class="st1" d="M318.5,73.1c0.1,8.3,5.5,11.8,11.6,11.8c4.4,0,7.1-0.8,9.4-1.8l1.1,4.4c-2.2,1-5.9,2.1-11.3,2.1
		c-10.4,0-16.7-6.9-16.7-17.1s6-18.3,15.9-18.3c11.1,0,14,9.7,14,16c0,1.3-0.1,2.2-0.2,2.9H318.5z M336.5,68.7
		c0.1-3.9-1.6-10-8.5-10c-6.2,0-9,5.7-9.5,10H336.5z"/>
	<path class="st1" d="M350.1,65.7c0-4-0.1-7.4-0.3-10.6h5.4l0.2,6.7h0.3c1.5-4.6,5.3-7.4,9.4-7.4c0.7,0,1.2,0.1,1.8,0.2v5.8
		c-0.6-0.1-1.3-0.2-2.1-0.2c-4.3,0-7.4,3.3-8.3,7.9c-0.1,0.8-0.3,1.8-0.3,2.9V89h-6.1V65.7z"/>
	<path class="st1" d="M421,87.4c-2.2,1.1-6.7,2.2-12.5,2.2c-13.3,0-23.3-8.4-23.3-23.9c0-14.8,10-24.8,24.6-24.8
		c5.9,0,9.6,1.3,11.2,2.1l-1.5,5c-2.3-1.1-5.6-2-9.5-2c-11.1,0-18.4,7.1-18.4,19.5c0,11.6,6.7,19,18.1,19c3.7,0,7.5-0.8,9.9-2
		L421,87.4z"/>
	<path class="st1" d="M446.7,89l-0.5-4.3H446c-1.9,2.7-5.5,5-10.4,5c-6.9,0-10.4-4.8-10.4-9.7c0-8.2,7.3-12.7,20.4-12.6v-0.7
		c0-2.8-0.8-7.8-7.7-7.8c-3.1,0-6.4,1-8.8,2.5l-1.4-4.1c2.8-1.8,6.9-3,11.1-3c10.4,0,12.9,7.1,12.9,13.9v12.7c0,2.9,0.1,5.8,0.6,8.1
		H446.7z M445.8,71.7c-6.7-0.1-14.4,1.1-14.4,7.6c0,4,2.7,5.9,5.8,5.9c4.4,0,7.2-2.8,8.2-5.7c0.2-0.6,0.4-1.3,0.4-2V71.7z"/>
	<path class="st1" d="M461.7,39.3h6.2V89h-6.2V39.3z"/>
	<path class="st1" d="M478.2,39.3h6.2V89h-6.2V39.3z"/>
</g>
</svg>
