<?xml version="1.0" encoding="utf-8"?>
<!-- Generator: Adobe Illustrator 22.1.0, SVG Export Plug-In . SVG Version: 6.00 Build 0)  -->
<svg version="1.1" id="Layer_1" xmlns="http://www.w3.org/2000/svg" xmlns:xlink="http://www.w3.org/1999/xlink" x="0px" y="0px"
	 viewBox="0 0 200 200" style="enable-background:new 0 0 200 200;" xml:space="preserve">
<style type="text/css">
	.st0{fill:#FFFFFF;}
</style>
<path d="M143.6,136.9H55.5c-16.1,0-29.3-13.2-29.3-29.3V62.2c0-16.1,13.2-29.3,29.3-29.3h88.2c16.1,0,29.3,13.2,29.3,29.3v45.3
	C173,123.7,159.8,136.9,143.6,136.9z"/>
<path d="M83.5,166C52.3,166,27,142,26.2,111.9c0-0.5,0-1,0-1.5c0-15.8,12.8-28.7,28.7-28.7s28.7,12.8,28.7,28.7
	c0,10.9-6.1,20.4-15.1,25.3v0C68.3,152.5,75.1,166,83.5,166z"/>
<g>
	<line x1="52.2" y1="72.2" x2="147" y2="72.2"/>
	<path class="st0" d="M143.5,75.7H55.7c-1.9,0-3.5-1.6-3.5-3.5v0c0-1.9,1.6-3.5,3.5-3.5h87.8c1.9,0,3.5,1.6,3.5,3.5v0
		C147,74.2,145.4,75.7,143.5,75.7z"/>
</g>
<g>
	<line x1="52.2" y1="97.5" x2="147" y2="97.5"/>
	<path class="st0" d="M143.5,101H55.7c-1.9,0-3.5-1.6-3.5-3.5v0c0-1.9,1.6-3.5,3.5-3.5h87.8c1.9,0,3.5,1.6,3.5,3.5v0
		C147,99.4,145.4,101,143.5,101z"/>
</g>
</svg>
