<?xml version="1.0" encoding="utf-8"?>
<!-- Generator: Adobe Illustrator 22.1.0, SVG Export Plug-In . SVG Version: 6.00 Build 0)  -->
<svg version="1.1" id="Layer_1" xmlns="http://www.w3.org/2000/svg" xmlns:xlink="http://www.w3.org/1999/xlink" x="0px" y="0px"
	 viewBox="0 0 800 800" style="enable-background:new 0 0 800 800;" xml:space="preserve">
<style type="text/css">
	.st0{fill:#FFFFFF;}
	.st1{fill:#FFFFFF;stroke:#000000;stroke-width:13;stroke-miterlimit:10;}
</style>
<g>
	<path class="st0" d="M665,267.5V152.7c0-9.8-8-17.8-17.8-17.8H532.5"/>
	<path d="M665,267.5L665,267.5c9.8,0,17.8-8,17.8-17.8V135c0-9.8-8-17.8-17.8-17.8H550.3c-9.8,0-17.8,8-17.8,17.8v0
		c0,9.8,8,17.8,17.8,17.8h79.1c9.8,0,17.8,8,17.8,17.8v79.1C647.3,259.5,655.2,267.5,665,267.5z"/>
</g>
<path class="st1" d="M578.8,400"/>
<path class="st1" d="M400,578.8"/>
<g>
	<path class="st0" d="M135,532.5v114.7c0,9.8,8,17.8,17.8,17.8h114.7"/>
	<path d="M135,682.8h114.7c9.8,0,17.8-8,17.8-17.8v0c0-9.8-8-17.8-17.8-17.8h-79.1c-9.8,0-17.8-8-17.8-17.8v-79.1
		c0-9.8-8-17.8-17.8-17.8h0c-9.8,0-17.8,8-17.8,17.8V665C117.2,674.9,125.1,682.8,135,682.8z"/>
</g>
<path class="st1" d="M221.2,400"/>
<path class="st1" d="M400,221.2"/>
<rect x="96" y="553.1" transform="matrix(0.7071 -0.7071 0.7071 0.7071 -336.6138 329.2025)" width="266.2" height="35.6"/>
<polyline points="489.4,335.8 677.6,147.5 652.5,122.4 464.2,310.6 "/>
</svg>
