<?xml version="1.0" encoding="utf-8"?>
<!-- Generator: Adobe Illustrator 22.1.0, SVG Export Plug-In . SVG Version: 6.00 Build 0)  -->
<svg version="1.1" id="Layer_1" xmlns="http://www.w3.org/2000/svg" xmlns:xlink="http://www.w3.org/1999/xlink" x="0px" y="0px"
	 viewBox="0 0 800 800" style="enable-background:new 0 0 800 800;" xml:space="preserve">
<style type="text/css">
	.st0{fill:#FFFFFF;stroke:#000000;stroke-width:13;stroke-miterlimit:10;}
</style>
<g>
	<path d="M482,185.5L482,185.5c-9.8,0-17.8,8-17.8,17.8V318c0,9.8,8,17.8,17.8,17.8h114.7c9.8,0,17.8-8,17.8-17.8l0,0
		c0-9.8-8-17.8-17.8-17.8h-79.1c-9.8,0-17.8-8-17.8-17.8v-79.1C499.7,193.5,491.8,185.5,482,185.5z"/>
</g>
<path class="st0" d="M578.8,400"/>
<path class="st0" d="M400,578.8"/>
<path class="st0" d="M221.2,400"/>
<path class="st0" d="M400,221.2"/>
<rect x="96" y="553.1" transform="matrix(0.7071 -0.7071 0.7071 0.7071 -336.5877 329.1838)" width="266.2" height="35.6"/>
<polyline points="657.6,117.2 469.4,305.5 494.5,330.6 682.8,142.4 "/>
<g>
	<path d="M320.5,461.8H205.8c-9.8,0-17.8,8-17.8,17.8l0,0c0,9.8,8,17.8,17.8,17.8h79.1c9.8,0,17.8,8,17.8,17.8v79.1
		c0,9.8,8,17.8,17.8,17.8l0,0c9.8,0,17.8-8,17.8-17.8V479.6C338.3,469.7,330.4,461.8,320.5,461.8z"/>
</g>
<rect x="93.4" y="555.9" transform="matrix(0.7071 -0.7071 0.7071 0.7071 -339.3339 328.182)" width="266.2" height="35.6"/>
<path class="st0" d="M24.1-42.9"/>
</svg>
