<?xml version="1.0" encoding="utf-8"?>
<!-- Generator: Adobe Illustrator 22.1.0, SVG Export Plug-In . SVG Version: 6.00 Build 0)  -->
<svg version="1.1" id="Layer_1" xmlns="http://www.w3.org/2000/svg" xmlns:xlink="http://www.w3.org/1999/xlink" x="0px" y="0px"
	 viewBox="0 0 200 200" style="enable-background:new 0 0 200 200;" xml:space="preserve">
<path d="M136.8,148.5H34c-4.4,0-7.9-3.5-7.9-7.9V58.3c0-4.4,3.5-7.9,7.9-7.9h102.8c4.4,0,7.9,3.5,7.9,7.9v82.4
	C144.7,145,141.2,148.5,136.8,148.5z"/>
<path d="M166,142.5l-19.4-16.9c-1.2-1-1.9-2.7-1.9-4.5V77.8c0-1.8,0.7-3.4,1.9-4.5L166,56.4c2.9-2.5,7,0,7,4.5V138
	C173,142.4,168.9,145,166,142.5z"/>
</svg>
